<svg width="171" height="39" viewBox="0 0 171 39" fill="none" xmlns="http://www.w3.org/2000/svg">
<g clip-path="url(#clip0_1568_1023)">
<path d="M17.5999 0.835938C18.0421 0.835938 18.4522 0.928414 18.8381 1.10566C19.224 1.28291 19.5456 1.52951 19.8029 1.83006C20.0602 2.13831 20.2532 2.4851 20.3657 2.87041C20.4783 3.26344 20.4864 3.66417 20.3899 4.08802L18.1145 15.0464C17.9858 15.7015 17.6562 16.2332 17.1255 16.6417C16.5949 17.0501 15.9838 17.2505 15.3004 17.2505H2.86213C2.40383 17.2505 1.98574 17.158 1.59981 16.9807C1.21387 16.8035 0.900304 16.5569 0.643016 16.2563C0.393769 15.9481 0.208843 15.6013 0.0882391 15.2006C-0.0243243 14.7998 -0.0404048 14.3914 0.0399977 13.9676L2.34755 3.03995C2.47619 2.38491 2.80584 1.85318 3.32846 1.44474C3.85108 1.0363 4.45409 0.835938 5.13752 0.835938H17.5919H17.5999ZM4.1164 4.65829L6.97873 5.48286L5.45913 12.7808C5.42696 12.9503 5.45913 13.1044 5.57973 13.2354C5.69229 13.3665 5.83702 13.4358 6.02194 13.4358H16.3295L13.4913 12.6112L15.0109 5.31332C15.0431 5.14379 15.0029 4.98966 14.8903 4.85865C14.7778 4.72764 14.625 4.65829 14.4481 4.65829H4.1164Z" fill="black"/>
<path d="M26.9027 12.773C26.8706 12.9425 26.9027 13.0966 27.0233 13.2276C27.1359 13.3586 27.2806 13.428 27.4655 13.428H31.751C32.0485 13.428 32.2334 13.2816 32.3138 12.981L33.8817 5.47505L36.7199 4.65047H29.1299L29.9339 0.828125H39.9681L37.0093 15.0463C36.8807 15.7014 36.551 16.2331 36.0284 16.6416C35.5058 17.05 34.9028 17.2504 34.2194 17.2504H24.3057C23.8474 17.2504 23.4293 17.1579 23.0434 16.9806C22.6575 16.8034 22.3439 16.5568 22.0866 16.2562C21.8374 15.948 21.6524 15.6012 21.5318 15.2005C21.4193 14.7997 21.4032 14.3913 21.4836 13.9675L22.1188 10.962H27.2565L26.8866 12.7653L26.9027 12.773Z" fill="black"/>
<path d="M41.0455 13.6438L41.3109 12.326H46.4486L46.3521 12.773C46.3199 12.9425 46.3521 13.0966 46.4727 13.2276C46.5853 13.3586 46.73 13.428 46.9149 13.428H56.5552L53.6928 12.6034L53.9582 11.3396C53.9903 11.17 53.9501 11.0159 53.8376 10.8849C53.725 10.7539 53.5722 10.6845 53.3954 10.6845H45.4677C44.9772 10.6845 44.5189 10.5844 44.1008 10.3763C43.6827 10.1682 43.329 9.9062 43.0476 9.57483C42.7661 9.24346 42.5732 8.86585 42.4445 8.42658C42.3239 7.98732 42.3079 7.53265 42.4043 7.06256L43.1842 3.24021C43.329 2.53893 43.6908 1.96096 44.2697 1.50628C44.8486 1.05161 45.5159 0.828125 46.2637 0.828125H57.5682C58.0587 0.828125 58.517 0.928307 58.9351 1.13638C59.3612 1.33674 59.707 1.60647 59.9884 1.93784C60.2617 2.26921 60.4708 2.64682 60.5994 3.07838C60.7281 3.50993 60.7441 3.9569 60.6477 4.42699L60.3502 5.76019H55.2125L55.3089 5.31322C55.3411 5.14368 55.3009 4.98955 55.1883 4.85854C55.0758 4.72754 54.923 4.65818 54.7461 4.65818H45.0013L47.8395 5.48276L47.6466 6.46917C47.6144 6.63871 47.6466 6.79284 47.7672 6.92385C47.8797 7.05485 48.0245 7.12421 48.2094 7.12421H55.8959L56.3622 7.14733C56.8366 7.17816 57.2627 7.30146 57.6486 7.50953C58.0346 7.7176 58.3562 7.98732 58.6135 8.3187C58.8708 8.65007 59.0637 9.01997 59.1763 9.43612C59.2889 9.85226 59.2969 10.2838 59.2004 10.7385L58.3481 14.846C58.2034 15.5472 57.8416 16.1252 57.2627 16.5799C56.6838 17.0346 56.0165 17.2581 55.2687 17.2581H44.0847C43.5943 17.2581 43.136 17.1579 42.7179 16.9498C42.2998 16.7417 41.946 16.4797 41.6646 16.1483C41.3832 15.817 41.1903 15.4394 41.0616 15.0001C40.941 14.5608 40.9249 14.1062 41.0214 13.6438H41.0455Z" fill="black"/>
<path d="M17.6966 22.4141H22.8343L19.4092 38.8363H10.5729L7.85532 25.8434H4.82415L7.68648 26.668L5.13772 38.844H0L3.42515 22.4218H12.2855L15.0031 35.4147L17.6966 22.4218V22.4141Z" fill="black"/>
<path d="M38.5691 38.8363H26.7017C26.2434 38.8363 25.8253 38.7438 25.4394 38.5666C25.0535 38.3893 24.7399 38.1427 24.4826 37.8422C24.2334 37.5339 24.0484 37.1871 23.9278 36.7864C23.8153 36.3857 23.7992 35.9772 23.8796 35.5534L26.6213 22.4141H31.759L29.3148 34.1894L26.4525 35.0139H36.0927C36.2214 35.0139 36.342 34.9677 36.4465 34.8829C36.551 34.7982 36.6234 34.6903 36.6556 34.567L39.2043 22.4141H44.342L41.3832 36.6323C41.2546 37.2873 40.9249 37.8191 40.3943 38.2275C39.8636 38.6359 39.2526 38.8363 38.5691 38.8363Z" fill="black"/>
<path d="M46.9871 22.4141H64.4586L63.6546 26.2364H54.9148L57.7771 27.061L55.3088 38.8363H49.6083L52.2294 26.2364H46.1831L46.9871 22.4141Z" fill="black"/>
<path d="M76.9694 34.1894H70.706L69.7251 38.8363H64.5874L68.0125 22.4141H84.5111C84.9694 22.4141 85.3875 22.5065 85.7735 22.6838C86.1594 22.861 86.473 23.1076 86.7302 23.4082C86.9795 23.7164 87.1644 24.0632 87.285 24.4485C87.3976 24.8416 87.4137 25.2423 87.3333 25.6661L86.0147 31.9776C85.886 32.6173 85.5564 33.149 85.0338 33.5574C84.5111 33.9736 83.9081 34.1817 83.2247 34.1817H82.1232L84.3021 38.8286H79.1644L76.9855 34.1817L76.9694 34.1894ZM80.7403 30.3439C80.8689 30.3439 80.9895 30.3054 81.094 30.2283C81.1986 30.1512 81.2709 30.0511 81.3031 29.92L81.9141 26.8915C81.9463 26.7219 81.9141 26.5678 81.8016 26.4368C81.697 26.3058 81.5523 26.2364 81.3754 26.2364H69.3312L72.1694 27.061L71.4859 30.3439H80.7403Z" fill="black"/>
<path d="M88.3784 38.8363L91.8036 22.4141H96.9413L96.1373 26.2364H93.1302L95.9684 27.061L93.5242 38.8363H88.3865H88.3784Z" fill="black"/>
<path d="M99.5865 22.4141H117.058L116.254 26.2364H107.514L110.377 27.061L107.908 38.8363H102.208L104.829 26.2364H98.7825L99.5865 22.4141Z" fill="black"/>
<path d="M117.178 38.8363L120.604 22.4141H125.741L124.937 26.2364H121.93L124.768 27.061L122.324 38.8363H117.187H117.178Z" fill="black"/>
<path d="M144.323 22.414C144.765 22.414 145.175 22.5064 145.561 22.6837C145.947 22.8609 146.268 23.1075 146.526 23.4081C146.783 23.7163 146.976 24.0631 147.088 24.4484C147.201 24.8415 147.209 25.2422 147.113 25.666L144.837 36.6245C144.709 37.2795 144.379 37.8112 143.848 38.2197C143.318 38.6281 142.707 38.8285 142.023 38.8285H129.593C129.135 38.8285 128.716 38.736 128.331 38.5588C127.945 38.3815 127.631 38.1349 127.374 37.8344C127.116 37.5338 126.94 37.1793 126.827 36.7786C126.714 36.3779 126.698 35.9694 126.779 35.5456L129.078 24.6103C129.207 23.9552 129.537 23.4235 130.059 23.0151C130.582 22.6066 131.185 22.4062 131.868 22.4062H144.323V22.414ZM130.839 26.2363L133.701 27.0609L132.182 34.3588C132.15 34.5283 132.19 34.6825 132.302 34.8135C132.415 34.9445 132.56 35.0138 132.745 35.0138H143.052L140.214 34.1893L141.734 26.8913C141.766 26.7218 141.726 26.5677 141.613 26.4367C141.5 26.3057 141.348 26.2363 141.171 26.2363H130.839Z" fill="black"/>
<path d="M165.862 22.4141H171L167.575 38.8363H158.739L156.021 25.8434H152.99L155.852 26.668L153.303 38.844H148.166L151.591 22.4218H160.451L163.169 35.4147L165.862 22.4218V22.4141Z" fill="black"/>
</g>
<defs>
<clipPath id="clip0_1568_1023">
<rect width="171" height="38" fill="white" transform="translate(0 0.835938)"/>
</clipPath>
</defs>
</svg>
